<?xml version="1.0" encoding="UTF-8"?>
<svg id="Studio" xmlns="http://www.w3.org/2000/svg" version="1.1" xmlns:xlink="http://www.w3.org/1999/xlink" viewBox="0 0 697.3 198.4">
  <!-- Generator: Adobe Illustrator 30.8.2, SVG Export Plug-In . SVG Version: 2.1.4 Build 7)  -->
  <defs>
    <style>
      .st0 {
        fill: url(#_名称未設定グラデーション_5);
      }

      .st1 {
        fill: url(#_名称未設定グラデーション_13);
      }

      .st2 {
        fill: url(#_名称未設定グラデーション_6);
      }

      .st3 {
        fill: url(#_名称未設定グラデーション_2);
      }

      .st4 {
        fill: url(#_名称未設定グラデーション_11);
      }

      .st5 {
        fill: url(#_名称未設定グラデーション_14);
      }

      .st6 {
        fill: url(#_名称未設定グラデーション);
      }

      .st7 {
        fill: url(#_名称未設定グラデーション_12);
      }

      .st8 {
        fill: url(#_名称未設定グラデーション_8);
      }

      .st9 {
        fill: url(#_名称未設定グラデーション_4);
      }

      .st10 {
        fill: url(#_名称未設定グラデーション_3);
      }

      .st11 {
        fill: url(#_名称未設定グラデーション_10);
      }

      .st12 {
        fill: url(#_名称未設定グラデーション_7);
      }

      .st13 {
        fill: url(#_名称未設定グラデーション_9);
      }
    </style>
    <radialGradient id="_名称未設定グラデーション" data-name="名称未設定グラデーション" cx="246.4" cy="107.2" fx="246.4" fy="107.2" r="26" gradientTransform="translate(0 202.1) scale(1 -1)" gradientUnits="userSpaceOnUse">
      <stop offset="0" stop-color="#fff"/>
      <stop offset="0" stop-color="#e9eff5"/>
      <stop offset=".1" stop-color="#b7cade"/>
      <stop offset=".2" stop-color="#8daccc"/>
      <stop offset=".3" stop-color="#6c94bd"/>
      <stop offset=".4" stop-color="#5583b3"/>
      <stop offset=".5" stop-color="#4779ad"/>
      <stop offset=".5" stop-color="#4376ab"/>
      <stop offset=".6" stop-color="#35639a"/>
      <stop offset=".8" stop-color="#244b86"/>
      <stop offset=".9" stop-color="#193d79"/>
      <stop offset="1" stop-color="#163875"/>
    </radialGradient>
    <radialGradient id="_名称未設定グラデーション_2" data-name="名称未設定グラデーション 2" cx="298.1" cy="97.2" fx="298.1" fy="97.2" r="32.3" gradientTransform="translate(0 202.1) scale(1 -1)" gradientUnits="userSpaceOnUse">
      <stop offset="0" stop-color="#fff"/>
      <stop offset="0" stop-color="#e9eff5"/>
      <stop offset=".1" stop-color="#b7cade"/>
      <stop offset=".2" stop-color="#8daccc"/>
      <stop offset=".3" stop-color="#6c94bd"/>
      <stop offset=".4" stop-color="#5583b3"/>
      <stop offset=".5" stop-color="#4779ad"/>
      <stop offset=".5" stop-color="#4376ab"/>
      <stop offset=".6" stop-color="#35639a"/>
      <stop offset=".8" stop-color="#244b86"/>
      <stop offset=".9" stop-color="#193d79"/>
      <stop offset="1" stop-color="#163875"/>
    </radialGradient>
    <radialGradient id="_名称未設定グラデーション_3" data-name="名称未設定グラデーション 3" cx="356.7" cy="97.2" fx="356.7" fy="97.2" r="23.8" gradientTransform="translate(0 202.1) scale(1 -1)" gradientUnits="userSpaceOnUse">
      <stop offset="0" stop-color="#fff"/>
      <stop offset="0" stop-color="#e9eff5"/>
      <stop offset=".1" stop-color="#b7cade"/>
      <stop offset=".2" stop-color="#8daccc"/>
      <stop offset=".3" stop-color="#6c94bd"/>
      <stop offset=".4" stop-color="#5583b3"/>
      <stop offset=".5" stop-color="#4779ad"/>
      <stop offset=".5" stop-color="#4376ab"/>
      <stop offset=".6" stop-color="#35639a"/>
      <stop offset=".8" stop-color="#244b86"/>
      <stop offset=".9" stop-color="#193d79"/>
      <stop offset="1" stop-color="#163875"/>
    </radialGradient>
    <radialGradient id="_名称未設定グラデーション_4" data-name="名称未設定グラデーション 4" cx="401.3" cy="95.9" fx="401.3" fy="95.9" r="25.4" gradientTransform="translate(0 202.1) scale(1 -1)" gradientUnits="userSpaceOnUse">
      <stop offset="0" stop-color="#fff"/>
      <stop offset="0" stop-color="#e9eff5"/>
      <stop offset=".1" stop-color="#b7cade"/>
      <stop offset=".2" stop-color="#8daccc"/>
      <stop offset=".3" stop-color="#6c94bd"/>
      <stop offset=".4" stop-color="#5583b3"/>
      <stop offset=".5" stop-color="#4779ad"/>
      <stop offset=".5" stop-color="#4376ab"/>
      <stop offset=".6" stop-color="#35639a"/>
      <stop offset=".8" stop-color="#244b86"/>
      <stop offset=".9" stop-color="#193d79"/>
      <stop offset="1" stop-color="#163875"/>
    </radialGradient>
    <radialGradient id="_名称未設定グラデーション_5" data-name="名称未設定グラデーション 5" cx="345.5" cy="101" fx="345.5" fy="101" r="236.5" gradientTransform="translate(0 202.1) scale(1 -1)" gradientUnits="userSpaceOnUse">
      <stop offset="0" stop-color="#fff"/>
      <stop offset="0" stop-color="#e9eff5"/>
      <stop offset=".1" stop-color="#b7cade"/>
      <stop offset=".2" stop-color="#8daccc"/>
      <stop offset=".3" stop-color="#6c94bd"/>
      <stop offset=".4" stop-color="#5583b3"/>
      <stop offset=".5" stop-color="#4779ad"/>
      <stop offset=".5" stop-color="#4376ab"/>
      <stop offset=".6" stop-color="#35639a"/>
      <stop offset=".8" stop-color="#244b86"/>
      <stop offset=".9" stop-color="#193d79"/>
      <stop offset="1" stop-color="#163875"/>
    </radialGradient>
    <radialGradient id="_名称未設定グラデーション_6" data-name="名称未設定グラデーション 6" cx="63.8" cy="106.2" fx="63.8" fy="106.2" r="2" gradientTransform="translate(0 202.1) scale(1 -1)" gradientUnits="userSpaceOnUse">
      <stop offset="0" stop-color="#fff"/>
      <stop offset="0" stop-color="#e9eff5"/>
      <stop offset=".1" stop-color="#b7cade"/>
      <stop offset=".2" stop-color="#8daccc"/>
      <stop offset=".3" stop-color="#6c94bd"/>
      <stop offset=".4" stop-color="#5583b3"/>
      <stop offset=".5" stop-color="#4779ad"/>
      <stop offset=".5" stop-color="#4376ab"/>
      <stop offset=".6" stop-color="#35639a"/>
      <stop offset=".8" stop-color="#244b86"/>
      <stop offset=".9" stop-color="#193d79"/>
      <stop offset="1" stop-color="#163875"/>
    </radialGradient>
    <radialGradient id="_名称未設定グラデーション_7" data-name="名称未設定グラデーション 7" cx="72.9" cy="106.9" fx="72.9" fy="106.9" r="4.5" gradientTransform="translate(0 202.1) scale(1 -1)" gradientUnits="userSpaceOnUse">
      <stop offset="0" stop-color="#fff"/>
      <stop offset="0" stop-color="#e9eff5"/>
      <stop offset=".1" stop-color="#b7cade"/>
      <stop offset=".2" stop-color="#8daccc"/>
      <stop offset=".3" stop-color="#6c94bd"/>
      <stop offset=".4" stop-color="#5583b3"/>
      <stop offset=".5" stop-color="#4779ad"/>
      <stop offset=".5" stop-color="#4376ab"/>
      <stop offset=".6" stop-color="#35639a"/>
      <stop offset=".8" stop-color="#244b86"/>
      <stop offset=".9" stop-color="#193d79"/>
      <stop offset="1" stop-color="#163875"/>
    </radialGradient>
    <radialGradient id="_名称未設定グラデーション_8" data-name="名称未設定グラデーション 8" cx="355.9" cy="130.8" fx="355.9" fy="130.8" r="9.9" gradientTransform="translate(0 202.1) scale(1 -1)" gradientUnits="userSpaceOnUse">
      <stop offset="0" stop-color="#fff"/>
      <stop offset="0" stop-color="#e9eff5"/>
      <stop offset=".1" stop-color="#b7cade"/>
      <stop offset=".2" stop-color="#8daccc"/>
      <stop offset=".3" stop-color="#6c94bd"/>
      <stop offset=".4" stop-color="#5583b3"/>
      <stop offset=".5" stop-color="#4779ad"/>
      <stop offset=".5" stop-color="#4376ab"/>
      <stop offset=".6" stop-color="#35639a"/>
      <stop offset=".8" stop-color="#244b86"/>
      <stop offset=".9" stop-color="#193d79"/>
      <stop offset="1" stop-color="#163875"/>
    </radialGradient>
    <radialGradient id="_名称未設定グラデーション_9" data-name="名称未設定グラデーション 9" cx="456.2" cy="88.9" fx="456.2" fy="88.9" r="14.6" gradientTransform="translate(0 202.1) scale(1 -1)" gradientUnits="userSpaceOnUse">
      <stop offset="0" stop-color="#fff"/>
      <stop offset="0" stop-color="#e9eff5"/>
      <stop offset=".1" stop-color="#b7cade"/>
      <stop offset=".2" stop-color="#8daccc"/>
      <stop offset=".3" stop-color="#6c94bd"/>
      <stop offset=".4" stop-color="#5583b3"/>
      <stop offset=".5" stop-color="#4779ad"/>
      <stop offset=".5" stop-color="#4376ab"/>
      <stop offset=".6" stop-color="#35639a"/>
      <stop offset=".8" stop-color="#244b86"/>
      <stop offset=".9" stop-color="#193d79"/>
      <stop offset="1" stop-color="#163875"/>
    </radialGradient>
    <radialGradient id="_名称未設定グラデーション_10" data-name="名称未設定グラデーション 10" cx="517.8" cy="88.1" fx="517.8" fy="88.1" r="19.2" gradientTransform="translate(0 202.1) scale(1 -1)" gradientUnits="userSpaceOnUse">
      <stop offset="0" stop-color="#fff"/>
      <stop offset="0" stop-color="#e9eff5"/>
      <stop offset=".1" stop-color="#b7cade"/>
      <stop offset=".2" stop-color="#8daccc"/>
      <stop offset=".3" stop-color="#6c94bd"/>
      <stop offset=".4" stop-color="#5583b3"/>
      <stop offset=".5" stop-color="#4779ad"/>
      <stop offset=".5" stop-color="#4376ab"/>
      <stop offset=".6" stop-color="#35639a"/>
      <stop offset=".8" stop-color="#244b86"/>
      <stop offset=".9" stop-color="#193d79"/>
      <stop offset="1" stop-color="#163875"/>
    </radialGradient>
    <radialGradient id="_名称未設定グラデーション_11" data-name="名称未設定グラデーション 11" cx="555.2" cy="97.1" fx="555.2" fy="97.1" r="22" gradientTransform="translate(0 202.1) scale(1 -1)" gradientUnits="userSpaceOnUse">
      <stop offset="0" stop-color="#fff"/>
      <stop offset="0" stop-color="#e9eff5"/>
      <stop offset=".1" stop-color="#b7cade"/>
      <stop offset=".2" stop-color="#8daccc"/>
      <stop offset=".3" stop-color="#6c94bd"/>
      <stop offset=".4" stop-color="#5583b3"/>
      <stop offset=".5" stop-color="#4779ad"/>
      <stop offset=".5" stop-color="#4376ab"/>
      <stop offset=".6" stop-color="#35639a"/>
      <stop offset=".8" stop-color="#244b86"/>
      <stop offset=".9" stop-color="#193d79"/>
      <stop offset="1" stop-color="#163875"/>
    </radialGradient>
    <radialGradient id="_名称未設定グラデーション_12" data-name="名称未設定グラデーション 12" cx="587.9" cy="112.1" fx="587.9" fy="112.1" r="28.9" gradientTransform="translate(0 202.1) scale(1 -1)" gradientUnits="userSpaceOnUse">
      <stop offset="0" stop-color="#fff"/>
      <stop offset="0" stop-color="#e9eff5"/>
      <stop offset=".1" stop-color="#b7cade"/>
      <stop offset=".2" stop-color="#8daccc"/>
      <stop offset=".3" stop-color="#6c94bd"/>
      <stop offset=".4" stop-color="#5583b3"/>
      <stop offset=".5" stop-color="#4779ad"/>
      <stop offset=".5" stop-color="#4376ab"/>
      <stop offset=".6" stop-color="#35639a"/>
      <stop offset=".8" stop-color="#244b86"/>
      <stop offset=".9" stop-color="#193d79"/>
      <stop offset="1" stop-color="#163875"/>
    </radialGradient>
    <radialGradient id="_名称未設定グラデーション_13" data-name="名称未設定グラデーション 13" cx="612.4" cy="89.8" fx="612.4" fy="89.8" r="17.4" gradientTransform="translate(0 202.1) scale(1 -1)" gradientUnits="userSpaceOnUse">
      <stop offset="0" stop-color="#fff"/>
      <stop offset="0" stop-color="#e9eff5"/>
      <stop offset=".1" stop-color="#b7cade"/>
      <stop offset=".2" stop-color="#8daccc"/>
      <stop offset=".3" stop-color="#6c94bd"/>
      <stop offset=".4" stop-color="#5583b3"/>
      <stop offset=".5" stop-color="#4779ad"/>
      <stop offset=".5" stop-color="#4376ab"/>
      <stop offset=".6" stop-color="#35639a"/>
      <stop offset=".8" stop-color="#244b86"/>
      <stop offset=".9" stop-color="#193d79"/>
      <stop offset="1" stop-color="#163875"/>
    </radialGradient>
    <radialGradient id="_名称未設定グラデーション_14" data-name="名称未設定グラデーション 14" cx="481.8" cy="92.9" fx="481.8" fy="92.9" r="17" gradientTransform="translate(0 202.1) scale(1 -1)" gradientUnits="userSpaceOnUse">
      <stop offset="0" stop-color="#fff"/>
      <stop offset="0" stop-color="#e9eff5"/>
      <stop offset=".1" stop-color="#b7cade"/>
      <stop offset=".2" stop-color="#8daccc"/>
      <stop offset=".3" stop-color="#6c94bd"/>
      <stop offset=".4" stop-color="#5583b3"/>
      <stop offset=".5" stop-color="#4779ad"/>
      <stop offset=".5" stop-color="#4376ab"/>
      <stop offset=".6" stop-color="#35639a"/>
      <stop offset=".8" stop-color="#244b86"/>
      <stop offset=".9" stop-color="#193d79"/>
      <stop offset="1" stop-color="#163875"/>
    </radialGradient>
  </defs>
  <g>
    <path class="st6" d="M259.2,128.4c0,.6-.6.9-2,1-5-.5-15.5-.3-20.6-.3-.6.6-2.7.7-2.7-.3.1-2,7.4-.9,7.1-1.8.9-1.5,0-33.7.1-36.3.2-4.9-1.8-3.3-5.1-3.5-2,.5-4-1.3-.5-1.5,5.7-.3,10.1-1.6,14.3-4,.6,1,.9,3,1,5.8.2,6.3,0,32.5.5,38.8.9,2.5,6.6,0,8,2.2h0ZM243.2,78.2l-1.4-4.4c-.4-1.3-1.4-2.4-2.7-3l-3.7-1.5,3.7-1.5c1.3-.5,2.3-1.6,2.7-3l1.4-4.4,1.4,4.4c.4,1.3,1.4,2.4,2.7,3l3.7,1.5-3.7,1.5c-1.3.5-2.3,1.6-2.7,3l-1.4,4.4Z"/>
    <path class="st3" d="M337,127.6c0,.5-.6.8-1.9.8-8.3,0-7.1,0-20.1.2-2.8,0-1.1-1.9.7-1.5,1,0,4.4.3,4.8-.8.6-2,0-27.8,0-30.6,1.7-12.4-11.7-15.2-16.5-5.4-.7,3.3-.1,26-.2,31.6-.4,5.8.9,5.4,5.3,5.2,1,0,1.4.2,1.4.8-2.3,1.8-16,.3-20.6.8h-1.2c-1.3.2-1.9-1.2-.7-1.5.9-.5,7.3,1.2,6.5-2.7-.6-5.7,1.3-33.3-1.9-37.7-4.4-5.2-15.9-1-15.2,6.3.2,2.3-.3,32.3.8,33.6.4.7,4,.6,5.4.4,5.3,2.2-6.8,1.5-9.8,1.7h-11c-2,.2-2.2-1.6-.1-1.5,3.8-.3,5,.6,5.7-1.7-.1-5.5,0-32.5-.6-36.6-.5-2-5-1.2-6.9-1.3-1.4.2-2-1-1-1.5,2.4-.2,6.6-.5,10.1-1.7,7.4-2.3,6.8-7,7.1,3.5,4.3-8.5,23.4-9.8,25.9.1,7.6-12,29.2-9.3,26.9,8.1.2,2.5-.2,28.3.6,30,.3.2,1.4.4,3.5.6.7.1,3.3-.5,3.2.7h0Z"/>
    <path class="st10" d="M380,110.4c-1.2,24.3-39.6,24.9-45.1,2.1-9.3-24.8,27.1-45,39-21.3-12.1,4.7-14.6,4.5-30.7,10.1.9,7.8,5,17.3,10.5,20.8,9.2,6.2,22.8,1.2,24.2-10.9,0-1,1.7-1.8,2.1-.8h0ZM363.9,92.8c-4.9-16.8-24.2-9.8-21,6.4l21-6.4Z"/>
    <path class="st9" d="M428.3,125c0,.5-.8.8-2.4.9-6,.3-10.9,2-15.6,3.9-1.4.2-.4-6.1-.7-6.7-4.7,7.9-19.9,9.4-25.3,2.4-4-5.4-1.3-28.5-2.2-35.9.1-5-.5-5-4.8-5-3.1.5-4.2-1.5-1.1-1.6,4.1,0,10.7.7,14.9-.1.5,6.7-.8,34.7,1.4,39.9,2.4,6,13,4.9,15.5-.7,3.7-8.4,1.2-26.4,1.3-35.8.6-3.8-7.9-.9-7.7-3,2-1.5,14.9-.3,17-.8.2,6.1,0,34.1.6,39,.5,4.7,6.1.9,9,3.3h0Z"/>
    <g>
      <path class="st0" d="M661.5,142.9c-44.6,65.7-151.4.2-212.7-7.6-18.5-3.1-37.5-3.8-55.9,0-37.1,7.5-67.7,33.4-106.5,41.7-61.9,14.7-122-13.8-165.6-58.3-1.6,5.2-3.5,10.1-5.7,13.1-18.5,28.8-80.8,55.6-94.1,9.5-3.5-26.4,20.8-39.8,40-44.7-30.9,8.6-49.3,46.9-16.3,60.1,20.2,8.1,52.2-12.7,65.5-30.8,2.6-3.7,7.9-10.3,4.5-13.3-10.6-9.2-23.4-15.3-35.4-17.1,24.6,2.4,34.3,17.4,39.1,9.5,1.4-2.4,1.6-5.2,2.6-12.9,1-15.3,3.1-37.1,1.4-51.7-15.7-14-44.8-16-57.5,2.9-14.5,24.1,9.2,53,36,45.8-39.3,10.9-61.5-44.5-24.2-62.8,17.5-8.7,38.2-5.2,54.4,4.7,17.8,10.8,19.6,32.6,38.3,70.3.4.8,1.5.8,1.9,0,5.3-14.7,20-52.8,26.1-67.7,1.8-.7,9.1-1.5,15.3-1,.5-.6.9-1.1,1.4-1.6,4.8-5,13.2-6.3,19.2-2.8,5.7,3.1,9.2,9.5,8.9,15.8-.2,4.4-2.4,9.6-7.2,10.4-.9.2-1.9,0-2.7-.2,2.3.6,4.9-.3,6.5-2.1,2-2.2,2.7-5.3,2.6-8.2-.6-11.9-15.3-18.6-23.4-9.3-1,1.1-1.8,2.3-2.4,3.6.5,21.5-1.7,74.7,1.8,87.8,1.5.8,5.4,1.2,11.3,1.2,1.6-.2,4.9.2,4.5,1.2-.4,2.5-21,.8-24.3,1.4-4.8,0-17.5.1-21.5.2-1.8,0-5.2,0-4.9-1.2,1.1-2.6,15.6-1,15.8-3.1,1.9-3.3-.1-70.8.3-76.4,0-1.1-1.5-1.4-1.9-.4-5.5,13.6-20.3,51.1-27.7,73.1-2.6,6.6-3.2,9.2-6.1,3.3-2.1-5.6-20.9-46.6-33.9-73.8-3.8-7.6-.7-2.5-1.2,18.7-.6,17.3-.2,16.9-1.5,26.4-.5,2.8-1.7,8.8-3.3,15.3,52.2,48.4,120.7,73.7,188.2,46.3,35.1-12.1,70.3-28.3,108.1-27.5,1.2,0,2.4,0,3.6,0,68.6-.6,187.8,79,237.4,10.7,7.5-10.3,10.6-21.6,9-34.5-.9-7.4-3.3-14.4-7.8-20.2,4.7,5.5,7.4,12.7,8.6,20.2,2,13.3-.8,25-8.2,36Z"/>
      <path class="st2" d="M61.1,96.6c1.8-.5,3.6-.9,5.4-1.2-1.7.3-3.5.7-5.4,1.2Z"/>
      <path class="st12" d="M79.2,95.5c-3.9-.4-8.1-.5-12.7,0,4-.6,8.3-.5,12.7,0Z"/>
    </g>
    <path class="st8" d="M356.1,65.5s4.8-6.5,9.5-2.6c0,0,3,1.9-5.6,7.7l-14.2,10.5"/>
  </g>
  <g>
    <path class="st13" d="M469.3,119.8c0,2.6-1.3,4.8-3.8,6.6-2.6,1.8-5.6,2.7-9.2,2.7-2.1,0-4.6-.5-7.5-1.6-.8-.3-1.5-.5-2.1-.5-.9,0-1.5.4-1.9,1.3-.2.5-.6.8-1,.8-.4,0-.6-.2-.6-.5v-.8c0-.9,0-2.2,0-3.9v-4.2c0-.5.2-.7.6-.7s.8.2.8.7c.4,2.1,1.2,3.7,2.4,4.8,2.5,2.3,5.7,3.5,9.8,3.5,2.2,0,4-.5,5.3-1.4,1.3-.9,2-2.2,2-3.8s-.8-3.1-2.3-4.2c-.9-.6-1.6-1-2.3-1.2-.7-.2-2.8-.8-6.2-1.8-6.8-1.9-10.2-4.7-10.2-8.4,0-2.5,1.1-4.6,3.4-6.3s5.1-2.6,8.5-2.6c1.2,0,3,.3,5.5.8.6.1,1.1.2,1.6.2,1.3,0,2-.4,2.4-1.3.2-.4.5-.7.8-.7s.6.2.6.5v3.2c0,1.1.1,2.8.5,5.2h0c0,.5-.2.7-.7.7s-.8-.7-1.4-2c-.7-1.6-1.9-2.9-3.5-3.9-1.7-1-3.6-1.5-5.8-1.5s-3.8.5-5.1,1.4c-1.3.9-2,2.1-2,3.6,0,2.2,2.1,3.9,6.1,5.1,6.4,1.8,10.4,3.3,12.1,4.5,2.2,1.6,3.3,3.4,3.3,5.7h0Z"/>
    <path class="st11" d="M540.4,126c0,.3-.7.5-2,.5-4.8.2-8.9,1-12.5,2.3-.2,0-.5.1-.6.1-.4,0-.5-.2-.5-.5v-3.8c-2.8,2.8-6.7,4.3-11.7,4.3s-7.7-.9-9.6-2.9c-.8-.8-1.3-1.5-1.4-2.2s-.2-2.5-.2-5.4v-15.2c0-1.6-.1-2.5-.4-2.7-.2-.3-1.1-.4-2.5-.5h-1.2c-1.6,0-2.5,0-2.5-.5s.5-.5,1.5-.5,2.7,0,4.8.2c1,0,1.6,0,1.8,0,2.1,0,4.1,0,6-.3v18.6c0,3.4.3,5.7.9,6.8,1,1.7,3,2.6,6,2.6s5.6-1,7.1-2.9c1.1-1.4,1.6-3.7,1.6-6.8v-10.3c0-1.5,0-2.6-.3-3.4v-2.2c0-.7-.3-1.1-.6-1.2-.3-.1-1-.2-2.1-.2-2.6,0-3.8-.2-3.8-.6s.6-.4,1.9-.4h12.4v18.7c0,3.2,0,5.2.3,6.1s.7,1.3,1.4,1.5c.8.1,2.5.2,5.1.2s1.1.2,1.1.5h0Z"/>
    <path class="st4" d="M575.3,126.5c0,.3-.4.5-1.2.5h-2.7c-2.9,0-5.4.4-7.5,1.3-.8.3-1.3.5-1.5.5-.5,0-.8-.3-.8-.8v-2c-2.5,1.9-5.5,2.8-9.1,2.9-5,0-9.2-1.4-12.5-4.2-3.3-2.8-4.9-6.4-5-10.8,0-4.5,1.6-8.2,4.8-11s7.5-4.2,12.8-4.3c4.1,0,7.1,1.1,9.2,3.2v-10.2c0-3.3-.3-5.4-.7-6.2-.4-.7-.5-.5-1.2-1-.8-.6-4.6-.2-4.6-.2l3.7-.5c.3,0,.6,0,.9,0,1.8,0,4.4-.7,7.7-1.9.2,0,.4-.1.6-.1.6,0,.9.5.9,1.6v1.4c0,.7,0,1.3,0,1.8v22.7c.2,10.4.4,15.9.6,16.7.1.3,1.5.4,4.2.4.8,0,1.3.2,1.3.5h0ZM561.9,110.1c0-4.2-.7-6.9-1.9-8.1-1.6-1.5-3.7-2.2-6.2-2.2-3.2,0-5.8,1.2-7.7,3.7s-2.8,5.8-2.8,9.9c0,3.9.9,7.3,2.6,10.1.7,1.2,1.8,2.2,3.2,2.9,1.4.8,2.9,1.1,4.4,1.1,1.9,0,3.5-.4,5-1.2,1.5-.8,2.5-1.8,2.9-2.9s.6-5.6.6-13.3h0Z"/>
    <path class="st7" d="M596.6,127c0,.5-.5.7-1.5.7,0,0-.7,0-2.2-.2-1.8-.1-3.3-.2-4.5-.2h-9.4c-.3.2-.7.3-1.1.3-.7,0-1-.2-1-.6,0-.6.6-.8,1.8-.8,2.3,0,3.5-.2,3.8-.4.2-.2.3-1.3.3-3.3v-24.3c0-1.3-.1-2.1-.2-2.4,0-.2-.5-.4-1.1-.4h-3.5c-.7,0-1-.2-1-.6s.5-.5,1.5-.6c4-.2,7.4-1,10.3-2.5l.9-.5c.5.8.7,2.3.7,4.4,0-.1,0,.2,0,.8v25c0,2.1,0,3.4.1,3.8s.4.6,1,.7c.9.2,2.2.3,4,.3s1.3.2,1.3.6h0ZM603.8,75h-11.2c-1.6,0-3.2.8-4.3,2l-8.3,8.6,1.1-10.7c.2-1.9-.5-3.8-1.9-5.1l-7.3-6.8h11.2c1.6,0,3.2-.8,4.3-2l8.3-8.6-1.1,10.7c-.2,1.9.5,3.8,1.9,5.1,0,0,7.3,6.8,7.3,6.8Z"/>
    <path class="st1" d="M631.6,112.7c0,4.3-1.9,7.9-5.6,10.8s-8.2,4.3-13.5,4.2c-5.5,0-10.2-1.6-13.8-4.5-3.7-3-5.5-6.6-5.4-10.9,0-4.5,1.9-8.1,5.6-11.1,3.7-2.9,8.2-4.3,13.7-4.3,5.5,0,10,1.6,13.7,4.6s5.4,6.7,5.4,11.1h0ZM623.3,112.5c0-4.9-.9-8.7-2.9-11.5-1.5-2-4-3.1-7.6-3.1-3.4,0-6.1,1.2-8.1,3.8s-3,6.1-3,10.6c0,4.5.9,8,2.9,10.6,2,2.5,4.8,3.8,8.5,3.9,2.8,0,4.9-.7,6.3-2.3,2.6-2.9,4-6.9,4-12h0Z"/>
    <path class="st5" d="M495.4,124.4c-2.8,4.7-14.5,6.4-19.2,2.9-2.9-2.6-.9-22.3-1.5-26.2,0-1.3-3.6-.6-4.5-.7-2.1.1-2.8-.8-1-1,3.3-.2,6.2-1.1,8.5-2.8,1.7-2.4,3.4-4.4,4.1-7.2.4,1.4.5,2.9.4,4.4.1,1.4,0,4.7.4,5.3,2.9.4,8.6,0,10.1-.3,3.9,1.7-7.6,1.6-10.4,1.5,0,5.2-.3,21.2.6,24.1,2.9,6.4,11.8-1.7,12.4-.1h0Z"/>
  </g>
</svg>